<svg width="375" height="897" viewBox="0 0 375 897" fill="none" xmlns="http://www.w3.org/2000/svg">
<g clip-path="url(#clip0)">
<path d="M1948.09 394.097C1928.77 364.013 1899.98 331.287 1900.93 330.372C1858.6 282.705 1805.85 244.49 1744.39 220.199C1529.32 135.232 1290.96 253.739 1211.97 484.756C1194.74 535.167 1142.65 561.084 1095.68 542.484C1057.89 527.544 1034.98 488.414 1036.4 447.456L1036.59 415.44C1037.06 411.782 1047.57 322.241 1047.86 277.115L1047.86 276.709C1052.02 181.883 1027.59 88.9884 980.239 11.3392C960.92 -18.7448 932.13 -51.4713 933.077 -52.386C890.746 -100.053 837.997 -138.268 776.535 -162.559C561.467 -247.525 323.102 -129.019 244.121 101.998C226.885 152.409 174.799 178.326 127.827 159.726C90.041 144.786 67.1232 105.657 68.5438 64.6976L68.5437 -115L-244.257 -91.3123C-244.257 -91.3123 -255.242 1.0741 -255.526 47.1148L-255.526 47.5214C-263.86 236.766 -158.457 417.981 15.7001 486.788C230.768 571.755 469.133 453.249 548.114 222.232L548.209 222.232C564.024 175.886 609.197 150.478 652.854 160.845C653.233 160.946 661.662 163.284 664.503 164.402C702.289 179.342 725.207 218.472 723.786 259.431L723.597 291.547L723.692 291.547C723.218 295.206 712.706 384.747 712.422 429.873L712.422 430.279C704.088 619.422 809.491 800.638 983.743 869.546C1198.81 954.513 1437.18 836.007 1516.16 604.99L1516.25 604.99C1532.07 558.644 1577.24 533.236 1620.9 543.602C1621.28 543.704 1629.7 546.042 1632.55 547.16C1670.33 562.1 1693.25 601.229 1691.83 642.188L1691.64 674.305L2004.44 798.3C2004.44 798.3 2015.43 705.914 2015.71 659.873L2015.71 659.466C2019.88 564.539 1995.44 471.746 1948.09 394.097Z" fill="url(#paint0_linear)"/>
</g>
<defs>
<linearGradient id="paint0_linear" x1="-142.671" y1="-280.227" x2="1972.53" y2="857.678" gradientUnits="userSpaceOnUse">
<stop offset="0.0491759" stop-color="#FFBA30"/>
<stop offset="0.0741656" stop-color="#FFB12E"/>
<stop offset="0.1158" stop-color="#FF9727"/>
<stop offset="0.1688" stop-color="#FF6E1D"/>
<stop offset="0.2306" stop-color="#FF350E"/>
<stop offset="0.2819" stop-color="#FF0000"/>
<stop offset="0.5428" stop-color="#B4004C"/>
<stop offset="0.7717" stop-color="#780089"/>
<stop offset="0.8802" stop-color="#6100A1"/>
</linearGradient>
<clipPath id="clip0">
<rect width="1086.99" height="2272.18" fill="white" transform="translate(-256 896.988) rotate(-90)"/>
</clipPath>
</defs>
</svg>
