<svg xmlns="http://www.w3.org/2000/svg" xmlns:xlink="http://www.w3.org/1999/xlink" viewBox="0 0 2527.58 958.8"><defs><style>.cls-1{fill:url(#Degradado_sin_nombre_449);}</style><linearGradient id="Degradado_sin_nombre_449" x1="2267.46" y1="86.68" x2="1020.41" y2="2246.64" gradientTransform="translate(1691.65 -1490.52) rotate(66.89)" gradientUnits="userSpaceOnUse"><stop offset="0.05" stop-color="#ffba30"/><stop offset="0.07" stop-color="#ffb12e"/><stop offset="0.12" stop-color="#ff9727"/><stop offset="0.17" stop-color="#ff6e1c"/><stop offset="0.23" stop-color="#ff350e"/><stop offset="0.28" stop-color="red"/><stop offset="0.54" stop-color="#b4004d"/><stop offset="0.77" stop-color="#780089"/><stop offset="0.88" stop-color="#6100a1"/></linearGradient></defs><title>asdRecurso 1</title><g id="Capa_2" data-name="Capa 2"><g id="Capa_1-2" data-name="Capa 1"><path class="cls-1" d="M210.82,885.31c30.4,19.27,71,36.88,70.41,38.12a435.74,435.74,0,0,0,194.56,34.8C717.42,946,903.21,740,890.77,498.15h.08a95.64,95.64,0,0,1,184.86-39.05l0,0,12.19,29.09h0c1,3.48,25.32,88.89,42.48,129.86l.19.36a439.86,439.86,0,0,0,168.12,212.15c30.39,19.26,71,36.87,70.41,38.11a435.86,435.86,0,0,0,194.56,34.81c241.63-12.26,427.41-218.24,415-460.08l-.06,0h.15a95.63,95.63,0,0,1,184.86-39v0l12.19,29.09L2527.58,416s-25-88.15-42.52-130l-.18-.38C2419.9,111,2247.58-9.35,2051.8.57c-241.63,12.26-427.42,218.23-415,460.08l-.1,0a95.57,95.57,0,0,1-77.91,98.87c-.45.06-9.55,1.43-12.72,1.59a95.74,95.74,0,0,1-94.23-61.41v0l-12.2-29.11h-.06c-1-3.5-25.33-88.88-42.49-129.83l-.17-.39c-65-174.64-237.3-295-433.08-285-241.63,12.25-427.42,218.23-415,460.07l-.1,0a95.55,95.55,0,0,1-77.91,98.86c-.45.06-9.55,1.44-12.71,1.6a95.76,95.76,0,0,1-94.24-61.41v0l-12.2-29.11L0,542.82S25,631,42.52,672.8l.18.36A439.82,439.82,0,0,0,210.82,885.31Z"/></g></g></svg>